<svg id="mySVG" viewBox="0 0 491 528" fill="none" xmlns="http://www.w3.org/2000/svg">
                <g id="Layer_1" clip-path="url(#clip0_9_71)">
                <g id="metro">
                <g id="lines">
                <path class="line-path" id="yellow" d="M308.97 231.6L348.77 271.4L355.97 278.6C358.92 281.55 363.67 281.55 366.57 278.6L407.22 237.95" stroke="#F6E13D" stroke-width="10" stroke-linecap="round"/>
                <path class="line-path" id="green" d="M478.68 11.9L337.28 153.3L330.08 160.5C327.13 163.45 327.13 168.2 330.08 171.1L337.28 178.3L344.48 185.5C347.43 188.45 347.43 193.2 344.48 196.1L195.88 344.7L188.68 351.9C185.73 354.85 185.73 359.6 188.68 362.5L195.88 369.7L213.58 387.4L220.78 394.6C223.73 397.55 223.73 402.3 220.78 405.2L213.58 412.4L206.38 419.6C203.43 422.55 203.43 427.3 206.38 430.2L213.58 437.4L220.78 444.6C223.73 447.55 223.73 452.3 220.78 455.2L213.58 462.4L195.88 480.1L178.23 497.75L160.58 515.4" stroke="#99C087" stroke-width="10" stroke-linecap="round"/>
                <path class="line-path" id="blue" d="M265.37 63.05L147.17 181.25L138.32 190.1C135.37 193.05 135.37 197.8 138.32 200.7L159.52 221.9L198.42 260.8C201.37 263.75 201.37 268.5 198.42 271.4L183.52 286.3L117.77 352.05" stroke="#67BCE1" stroke-width="10" stroke-linecap="round"/>
                <path class="line-path" id="orange" d="M64.77 61.9L82.47 44.2L89.67 37C92.62 34.05 97.37 34.05 100.27 37L107.47 44.2L195.87 132.6L301.92 238.65L309.12 245.85C312.07 248.8 312.07 253.55 309.12 256.45L195.87 369.7L178.17 387.4L170.97 394.6C168.02 397.55 163.27 397.55 160.37 394.6L153.17 387.4L135.47 369.7L117.77 352L11.72 246" stroke="#FAA54A" stroke-width="10" stroke-linecap="round"/>
                </g>
                <g id="points">
                <g id="ligne-bleu 2">
                <path class="metro-dot" id="b10" d="M265.37 66.4C267.22 66.4 268.72 64.9 268.72 63.05C268.72 61.2 267.22 59.7 265.37 59.7C263.52 59.7 262.02 61.2 262.02 63.05C262.02 64.9 263.52 66.4 265.37 66.4Z" fill="white"/>
                <path class="metro-dot" id="b9" d="M242.22 89.55C244.07 89.55 245.57 88.05 245.57 86.2C245.57 84.35 244.07 82.85 242.22 82.85C240.37 82.85 238.87 84.35 238.87 86.2C238.87 88.05 240.37 89.55 242.22 89.55Z" fill="white"/>
                <path class="metro-dot" id="b8" d="M219.02 112.75C220.87 112.75 222.37 111.25 222.37 109.4C222.37 107.55 220.87 106.05 219.02 106.05C217.17 106.05 215.67 107.55 215.67 109.4C215.67 111.25 217.17 112.75 219.02 112.75Z" fill="white"/>
                <path class="metro-dot" id="b7" d="M172.62 159.15C174.47 159.15 175.97 157.65 175.97 155.8C175.97 153.95 174.47 152.45 172.62 152.45C170.77 152.45 169.27 153.95 169.27 155.8C169.27 157.65 170.77 159.15 172.62 159.15Z" fill="white"/>
                <path class="metro-dot" id="b6" d="M149.92 181.69C151.77 181.69 153.27 180.19 153.27 178.34C153.27 176.49 151.77 174.99 149.92 174.99C148.07 174.99 146.57 176.49 146.57 178.34C146.57 180.19 148.07 181.69 149.92 181.69Z" fill="white"/>
                <path class="metro-dot" id="b5" d="M156.62 222.3C158.47 222.3 159.97 220.8 159.97 218.95C159.97 217.1 158.47 215.6 156.62 215.6C154.77 215.6 153.27 217.1 153.27 218.95C153.27 220.8 154.77 222.3 156.62 222.3Z" fill="white"/>
                <path class="metro-dot" id="b4" d="M180.17 245.9C182.05 245.9 183.57 244.38 183.57 242.5C183.57 240.62 182.05 239.1 180.17 239.1C178.29 239.1 176.77 240.62 176.77 242.5C176.77 244.38 178.29 245.9 180.17 245.9Z" fill="white"/>
                <path class="metro-dot" id="b3" d="M187.37 285.9C189.25 285.9 190.77 284.38 190.77 282.5C190.77 280.62 189.25 279.1 187.37 279.1C185.49 279.1 183.97 280.62 183.97 282.5C183.97 284.38 185.49 285.9 187.37 285.9Z" fill="white"/>
                <path class="metro-dot" id="b2" d="M169.62 303.7C171.5 303.7 173.02 302.18 173.02 300.3C173.02 298.42 171.5 296.9 169.62 296.9C167.74 296.9 166.22 298.42 166.22 300.3C166.22 302.18 167.74 303.7 169.62 303.7Z" fill="white"/>
                <path class="metro-dot" id="b1" d="M144.62 328.7C146.5 328.7 148.02 327.18 148.02 325.3C148.02 323.42 146.5 321.9 144.62 321.9C142.74 321.9 141.22 323.42 141.22 325.3C141.22 327.18 142.74 328.7 144.62 328.7Z" fill="white"/>
                </g>
                <g id="ligne-verte">
                <path class="metro-dot" id="g25" d="M160.47 518.85C162.35 518.85 163.87 517.33 163.87 515.45C163.87 513.57 162.35 512.05 160.47 512.05C158.59 512.05 157.07 513.57 157.07 515.45C157.07 517.33 158.59 518.85 160.47 518.85Z" fill="white"/>
                <path class="metro-dot" id="g24" d="M178.12 501.15C180 501.15 181.52 499.63 181.52 497.75C181.52 495.87 180 494.35 178.12 494.35C176.24 494.35 174.72 495.87 174.72 497.75C174.72 499.63 176.24 501.15 178.12 501.15Z" fill="white"/>
                <path class="metro-dot" id="g23" d="M195.83 483.5C197.71 483.5 199.23 481.98 199.23 480.1C199.23 478.22 197.71 476.7 195.83 476.7C193.95 476.7 192.43 478.22 192.43 480.1C192.43 481.98 193.95 483.5 195.83 483.5Z" fill="white"/>
                <path class="metro-dot" id="g22" d="M213.52 465.8C215.4 465.8 216.92 464.28 216.92 462.4C216.92 460.52 215.4 459 213.52 459C211.64 459 210.12 460.52 210.12 462.4C210.12 464.28 211.64 465.8 213.52 465.8Z" fill="white"/>
                <path class="metro-dot" id="g21" d="M213.52 440.8C215.4 440.8 216.92 439.28 216.92 437.4C216.92 435.52 215.4 434 213.52 434C211.64 434 210.12 435.52 210.12 437.4C210.12 439.28 211.64 440.8 213.52 440.8Z" fill="white"/>
                <path class="metro-dot" id="g20" d="M213.52 415.8C215.4 415.8 216.92 414.28 216.92 412.4C216.92 410.52 215.4 409 213.52 409C211.64 409 210.12 410.52 210.12 412.4C210.12 414.28 211.64 415.8 213.52 415.8Z" fill="white"/>
                <path class="metro-dot" id="g19" d="M213.52 390.8C215.4 390.8 216.92 389.28 216.92 387.4C216.92 385.52 215.4 384 213.52 384C211.64 384 210.12 385.52 210.12 387.4C210.12 389.28 211.64 390.8 213.52 390.8Z" fill="white"/>
                <path class="metro-dot" id="g18" d="M195.83 348.15C197.71 348.15 199.23 346.63 199.23 344.75C199.23 342.87 197.71 341.35 195.83 341.35C193.95 341.35 192.43 342.87 192.43 344.75C192.43 346.63 193.95 348.15 195.83 348.15Z" fill="white"/>
                <path class="metro-dot" id="g17" d="M213.52 330.45C215.4 330.45 216.92 328.93 216.92 327.05C216.92 325.17 215.4 323.65 213.52 323.65C211.64 323.65 210.12 325.17 210.12 327.05C210.12 328.93 211.64 330.45 213.52 330.45Z" fill="white"/>
                <path class="metro-dot" id="g16" d="M231.17 312.8C233.05 312.8 234.57 311.28 234.57 309.4C234.57 307.52 233.05 306 231.17 306C229.29 306 227.77 307.52 227.77 309.4C227.77 311.28 229.29 312.8 231.17 312.8Z" fill="white"/>
                <path class="metro-dot" id="g15" d="M248.87 295.1C250.75 295.1 252.27 293.58 252.27 291.7C252.27 289.82 250.75 288.3 248.87 288.3C246.99 288.3 245.47 289.82 245.47 291.7C245.47 293.58 246.99 295.1 248.87 295.1Z" fill="white"/>
                <path class="metro-dot" id="g14" d="M266.52 277.4C268.4 277.4 269.92 275.88 269.92 274C269.92 272.12 268.4 270.6 266.52 270.6C264.64 270.6 263.12 272.12 263.12 274C263.12 275.88 264.64 277.4 266.52 277.4Z" fill="white"/>
                <path class="metro-dot" id="g13" d="M284.22 259.75C286.1 259.75 287.62 258.23 287.62 256.35C287.62 254.47 286.1 252.95 284.22 252.95C282.34 252.95 280.82 254.47 280.82 256.35C280.82 258.23 282.34 259.75 284.22 259.75Z" fill="white"/>
                <path class="metro-dot" id="g12" d="M319.58 224.4C321.46 224.4 322.98 222.88 322.98 221C322.98 219.12 321.46 217.6 319.58 217.6C317.7 217.6 316.18 219.12 316.18 221C316.18 222.88 317.7 224.4 319.58 224.4Z" fill="white"/>
                <path class="metro-dot" id="g11" d="M337.22 206.7C339.1 206.7 340.62 205.18 340.62 203.3C340.62 201.42 339.1 199.9 337.22 199.9C335.34 199.9 333.82 201.42 333.82 203.3C333.82 205.18 335.34 206.7 337.22 206.7Z" fill="white"/>
                <path class="metro-dot" id="g10" d="M337.22 181.7C339.1 181.7 340.62 180.18 340.62 178.3C340.62 176.42 339.1 174.9 337.22 174.9C335.34 174.9 333.82 176.42 333.82 178.3C333.82 180.18 335.34 181.7 337.22 181.7Z" fill="white"/>
                <path class="metro-dot" id="g9" d="M337.22 156.7C339.1 156.7 340.62 155.18 340.62 153.3C340.62 151.42 339.1 149.9 337.22 149.9C335.34 149.9 333.82 151.42 333.82 153.3C333.82 155.18 335.34 156.7 337.22 156.7Z" fill="white"/>
                <path class="metro-dot" id="g8" d="M354.93 139.05C356.81 139.05 358.33 137.53 358.33 135.65C358.33 133.77 356.81 132.25 354.93 132.25C353.05 132.25 351.53 133.77 351.53 135.65C351.53 137.53 353.05 139.05 354.93 139.05Z" fill="white"/>
                <path class="metro-dot" id="g7" d="M372.62 121.35C374.5 121.35 376.02 119.83 376.02 117.95C376.02 116.07 374.5 114.55 372.62 114.55C370.74 114.55 369.22 116.07 369.22 117.95C369.22 119.83 370.74 121.35 372.62 121.35Z" fill="white"/>
                <path class="metro-dot" id="g6" d="M390.27 103.7C392.15 103.7 393.67 102.18 393.67 100.3C393.67 98.42 392.15 96.9 390.27 96.9C388.39 96.9 386.87 98.42 386.87 100.3C386.87 102.18 388.39 103.7 390.27 103.7Z" fill="white"/>
                <path class="metro-dot" id="g5" d="M407.97 86C409.85 86 411.37 84.48 411.37 82.6C411.37 80.72 409.85 79.2 407.97 79.2C406.09 79.2 404.57 80.72 404.57 82.6C404.57 84.48 406.09 86 407.97 86Z" fill="white"/>
                <path class="metro-dot" id="g4" d="M425.62 68.35C427.5 68.35 429.02 66.83 429.02 64.95C429.02 63.07 427.5 61.55 425.62 61.55C423.74 61.55 422.22 63.07 422.22 64.95C422.22 66.83 423.74 68.35 425.62 68.35Z" fill="white"/>
                <path class="metro-dot" id="g3" d="M443.33 50.65C445.21 50.65 446.73 49.13 446.73 47.25C446.73 45.37 445.21 43.85 443.33 43.85C441.45 43.85 439.93 45.37 439.93 47.25C439.93 49.13 441.45 50.65 443.33 50.65Z" fill="white"/>
                <path class="metro-dot" id="g2" d="M460.97 33C462.85 33 464.37 31.48 464.37 29.6C464.37 27.72 462.85 26.2 460.97 26.2C459.09 26.2 457.57 27.72 457.57 29.6C457.57 31.48 459.09 33 460.97 33Z" fill="white"/>
                <path class="metro-dot" id="g1" d="M478.68 15.3C480.56 15.3 482.08 13.78 482.08 11.9C482.08 10.02 480.56 8.5 478.68 8.5C476.8 8.5 475.28 10.02 475.28 11.9C475.28 13.78 476.8 15.3 478.68 15.3Z" fill="white"/>
                </g>
                <g id="ligne-orange">
                <path class="metro-dot" id="o27" d="M11.72 249.35C13.57 249.35 15.07 247.85 15.07 246C15.07 244.15 13.57 242.65 11.72 242.65C9.87 242.65 8.37 244.15 8.37 246C8.37 247.85 9.87 249.35 11.72 249.35Z" fill="white"/>
                <path class="metro-dot" id="o26" d="M29.42 267C31.27 267 32.77 265.5 32.77 263.65C32.77 261.8 31.27 260.3 29.42 260.3C27.57 260.3 26.07 261.8 26.07 263.65C26.07 265.5 27.57 267 29.42 267Z" fill="white"/>
                <path class="metro-dot" id="o25" d="M47.07 284.7C48.92 284.7 50.42 283.2 50.42 281.35C50.42 279.5 48.92 278 47.07 278C45.22 278 43.72 279.5 43.72 281.35C43.72 283.2 45.22 284.7 47.07 284.7Z" fill="white"/>
                <path class="metro-dot" id="o24" d="M64.77 302.35C66.62 302.35 68.12 300.85 68.12 299C68.12 297.15 66.62 295.65 64.77 295.65C62.92 295.65 61.42 297.15 61.42 299C61.42 300.85 62.92 302.35 64.77 302.35Z" fill="white"/>
                <path class="metro-dot" id="o23" d="M82.42 320.1C84.3 320.1 85.82 318.58 85.82 316.7C85.82 314.82 84.3 313.3 82.42 313.3C80.54 313.3 79.02 314.82 79.02 316.7C79.02 318.58 80.54 320.1 82.42 320.1Z" fill="white"/>
                <path class="metro-dot" id="o22" d="M100.12 337.8C102 337.8 103.52 336.28 103.52 334.4C103.52 332.52 102 331 100.12 331C98.24 331 96.72 332.52 96.72 334.4C96.72 336.28 98.24 337.8 100.12 337.8Z" fill="white"/>
                <path class="metro-dot" id="o21" d="M135.47 373.15C137.35 373.15 138.87 371.63 138.87 369.75C138.87 367.87 137.35 366.35 135.47 366.35C133.59 366.35 132.07 367.87 132.07 369.75C132.07 371.63 133.59 373.15 135.47 373.15Z" fill="white"/>
                <path class="metro-dot" id="o20" d="M153.17 390.8C155.05 390.8 156.57 389.28 156.57 387.4C156.57 385.52 155.05 384 153.17 384C151.29 384 149.77 385.52 149.77 387.4C149.77 389.28 151.29 390.8 153.17 390.8Z" fill="white"/>
                <path class="metro-dot" id="o19" d="M178.12 390.8C180 390.8 181.52 389.28 181.52 387.4C181.52 385.52 180 384 178.12 384C176.24 384 174.72 385.52 174.72 387.4C174.72 389.28 176.24 390.8 178.12 390.8Z" fill="white"/>
                <path class="metro-dot" id="o18" d="M213.52 355.45C215.4 355.45 216.92 353.93 216.92 352.05C216.92 350.17 215.4 348.65 213.52 348.65C211.64 348.65 210.12 350.17 210.12 352.05C210.12 353.93 211.64 355.45 213.52 355.45Z" fill="white"/>
                <path class="metro-dot" id="o17" d="M231.17 337.8C233.05 337.8 234.57 336.28 234.57 334.4C234.57 332.52 233.05 331 231.17 331C229.29 331 227.77 332.52 227.77 334.4C227.77 336.28 229.29 337.8 231.17 337.8Z" fill="white"/>
                <path class="metro-dot" id="o16" d="M248.87 320.1C250.75 320.1 252.27 318.58 252.27 316.7C252.27 314.82 250.75 313.3 248.87 313.3C246.99 313.3 245.47 314.82 245.47 316.7C245.47 318.58 246.99 320.1 248.87 320.1Z" fill="white"/>
                <path class="metro-dot" id="o15" d="M266.52 302.4C268.4 302.4 269.92 300.88 269.92 299C269.92 297.12 268.4 295.6 266.52 295.6C264.64 295.6 263.12 297.12 263.12 299C263.12 300.88 264.64 302.4 266.52 302.4Z" fill="white"/>
                <path class="metro-dot" id="o14" d="M284.22 284.75C286.1 284.75 287.62 283.23 287.62 281.35C287.62 279.47 286.1 277.95 284.22 277.95C282.34 277.95 280.82 279.47 280.82 281.35C280.82 283.23 282.34 284.75 284.22 284.75Z" fill="white"/>
                <path class="metro-dot" id="o13" d="M301.87 267.05C303.75 267.05 305.27 265.53 305.27 263.65C305.27 261.77 303.75 260.25 301.87 260.25C299.99 260.25 298.47 261.77 298.47 263.65C298.47 265.53 299.99 267.05 301.87 267.05Z" fill="white"/>
                <path class="metro-dot" id="o12" d="M284.22 224.4C286.1 224.4 287.62 222.88 287.62 221C287.62 219.12 286.1 217.6 284.22 217.6C282.34 217.6 280.82 219.12 280.82 221C280.82 222.88 282.34 224.4 284.22 224.4Z" fill="white"/>
                <path class="metro-dot" id="o11" d="M266.52 206.7C268.4 206.7 269.92 205.18 269.92 203.3C269.92 201.42 268.4 199.9 266.52 199.9C264.64 199.9 263.12 201.42 263.12 203.3C263.12 205.18 264.64 206.7 266.52 206.7Z" fill="white"/>
                <path class="metro-dot" id="o10" d="M248.87 189.05C250.75 189.05 252.27 187.53 252.27 185.65C252.27 183.77 250.75 182.25 248.87 182.25C246.99 182.25 245.47 183.77 245.47 185.65C245.47 187.53 246.99 189.05 248.87 189.05Z" fill="white"/>
                <path class="metro-dot" id="o9" d="M231.17 171.35C233.05 171.35 234.57 169.83 234.57 167.95C234.57 166.07 233.05 164.55 231.17 164.55C229.29 164.55 227.77 166.07 227.77 167.95C227.77 169.83 229.29 171.35 231.17 171.35Z" fill="white"/>
                <path class="metro-dot" id="o8" d="M213.52 153.65C215.37 153.65 216.87 152.15 216.87 150.3C216.87 148.45 215.37 146.95 213.52 146.95C211.67 146.95 210.17 148.45 210.17 150.3C210.17 152.15 211.67 153.65 213.52 153.65Z" fill="white"/>
                <path class="metro-dot" id="o7" d="M178.12 118.3C179.97 118.3 181.47 116.8 181.47 114.95C181.47 113.1 179.97 111.6 178.12 111.6C176.27 111.6 174.77 113.1 174.77 114.95C174.77 116.8 176.27 118.3 178.12 118.3Z" fill="white"/>
                <path class="metro-dot" id="o6" d="M160.47 100.6C162.32 100.6 163.82 99.1 163.82 97.25C163.82 95.4 162.32 93.9 160.47 93.9C158.62 93.9 157.12 95.4 157.12 97.25C157.12 99.1 158.62 100.6 160.47 100.6Z" fill="white"/>
                <path class="metro-dot" id="o5" d="M142.77 82.9C144.62 82.9 146.12 81.4 146.12 79.55C146.12 77.7 144.62 76.2 142.77 76.2C140.92 76.2 139.42 77.7 139.42 79.55C139.42 81.4 140.92 82.9 142.77 82.9Z" fill="white"/>
                <path class="metro-dot" id="o4" d="M125.12 65.25C126.97 65.25 128.47 63.7501 128.47 61.9001C128.47 60.0501 126.97 58.55 125.12 58.55C123.27 58.55 121.77 60.0501 121.77 61.9001C121.77 63.7501 123.27 65.25 125.12 65.25Z" fill="white"/>
                <path class="metro-dot" id="o3" d="M107.42 47.55C109.27 47.55 110.77 46.05 110.77 44.2C110.77 42.35 109.27 40.85 107.42 40.85C105.57 40.85 104.07 42.35 104.07 44.2C104.07 46.05 105.57 47.55 107.42 47.55Z" fill="white"/>
                <path class="metro-dot" id="o2" d="M85.05 44.97C86.9 44.97 88.4 43.47 88.4 41.62C88.4 39.77 86.9 38.27 85.05 38.27C83.2 38.27 81.7 39.77 81.7 41.62C81.7 43.47 83.2 44.97 85.05 44.97Z" fill="white"/>
                <path class="metro-dot" id="o1" d="M64.77 65.25C66.62 65.25 68.12 63.7501 68.12 61.9001C68.12 60.0501 66.62 58.55 64.77 58.55C62.92 58.55 61.42 60.0501 61.42 61.9001C61.42 63.7501 62.92 65.25 64.77 65.25Z" fill="white"/>
                </g>
                <g id="ligne-jaune">
                <path class="metro-dot" id="j2" d="M407.22 241.35C409.1 241.35 410.62 239.83 410.62 237.95C410.62 236.07 409.1 234.55 407.22 234.55C405.34 234.55 403.82 236.07 403.82 237.95C403.82 239.83 405.34 241.35 407.22 241.35Z" fill="white"/>
                <path class="metro-dot" id="j1" d="M371.87 276.7C373.75 276.7 375.27 275.18 375.27 273.3C375.27 271.42 373.75 269.9 371.87 269.9C369.99 269.9 368.47 271.42 368.47 273.3C368.47 275.18 369.99 276.7 371.87 276.7Z" fill="white"/>
                </g>
                </g>
                <g id="points-hitbox">
                <g id="ligne-bleu">
                <path class="metro-dot-hitbox" id="b10" d="M265.37 74.78C271.85 74.78 277.1 69.53 277.1 63.06C277.1 56.59 271.85 51.33 265.37 51.33C258.89 51.33 253.64 56.58 253.64 63.06C253.64 69.54 258.89 74.78 265.37 74.78Z" fill="white"/>
                <path class="metro-dot-hitbox" id="b9" d="M242.22 97.93C248.7 97.93 253.95 92.68 253.95 86.21C253.95 79.74 248.7 74.48 242.22 74.48C235.74 74.48 230.49 79.73 230.49 86.21C230.49 92.69 235.74 97.93 242.22 97.93Z" fill="white"/>
                <path class="metro-dot-hitbox" id="b8" d="M219.03 121.13C225.5 121.13 230.75 115.88 230.75 109.41C230.75 102.94 225.5 97.69 219.03 97.69C212.56 97.69 207.3 102.94 207.3 109.41C207.3 115.88 212.55 121.13 219.03 121.13Z" fill="white"/>
                <path class="metro-dot-hitbox" id="b7" d="M172.62 167.53C179.1 167.53 184.35 162.28 184.35 155.8C184.35 149.32 179.1 144.08 172.62 144.08C166.14 144.08 160.9 149.33 160.9 155.8C160.9 162.27 166.15 167.53 172.62 167.53Z" fill="white"/>
                <path class="metro-dot-hitbox" id="b6" d="M149.92 190.06C156.4 190.06 161.65 184.81 161.65 178.34C161.65 171.87 156.4 166.61 149.92 166.61C143.44 166.61 138.2 171.86 138.2 178.34C138.2 184.82 143.45 190.06 149.92 190.06Z" fill="white"/>
                <path class="metro-dot-hitbox" id="b5" d="M156.62 230.68C163.1 230.68 168.35 225.43 168.35 218.96C168.35 212.49 163.1 207.23 156.62 207.23C150.14 207.23 144.9 212.48 144.9 218.96C144.9 225.44 150.15 230.68 156.62 230.68Z" fill="white"/>
                <path class="metro-dot-hitbox" id="b4" d="M180.17 254.4C186.74 254.4 192.07 249.07 192.07 242.5C192.07 235.93 186.74 230.6 180.17 230.6C173.6 230.6 168.27 235.93 168.27 242.5C168.27 249.07 173.6 254.4 180.17 254.4Z" fill="white"/>
                <path class="metro-dot-hitbox" id="b3" d="M187.37 294.4C193.94 294.4 199.27 289.07 199.27 282.5C199.27 275.93 193.94 270.6 187.37 270.6C180.8 270.6 175.47 275.93 175.47 282.5C175.47 289.07 180.8 294.4 187.37 294.4Z" fill="white"/>
                <path class="metro-dot-hitbox" id="b2" d="M169.62 312.2C176.19 312.2 181.52 306.87 181.52 300.3C181.52 293.73 176.19 288.4 169.62 288.4C163.05 288.4 157.72 293.73 157.72 300.3C157.72 306.87 163.05 312.2 169.62 312.2Z" fill="white"/>
                <path class="metro-dot-hitbox" id="b1" d="M144.62 337.2C151.19 337.2 156.52 331.87 156.52 325.3C156.52 318.73 151.19 313.4 144.62 313.4C138.05 313.4 132.72 318.73 132.72 325.3C132.72 331.87 138.05 337.2 144.62 337.2Z" fill="white"/>
                </g>
                <g id="ligne-verte">
                <path class="metro-dot-hitbox" id="g25" d="M160.47 527.35C167.04 527.35 172.37 522.02 172.37 515.45C172.37 508.88 167.04 503.55 160.47 503.55C153.9 503.55 148.57 508.88 148.57 515.45C148.57 522.02 153.9 527.35 160.47 527.35Z" fill="white"/>
                <path class="metro-dot-hitbox" id="g24" d="M178.12 509.65C184.69 509.65 190.02 504.32 190.02 497.75C190.02 491.18 184.69 485.85 178.12 485.85C171.55 485.85 166.22 491.18 166.22 497.75C166.22 504.32 171.55 509.65 178.12 509.65Z" fill="white"/>
                <path class="metro-dot-hitbox" id="g23" d="M195.83 492C202.4 492 207.73 486.67 207.73 480.1C207.73 473.53 202.4 468.2 195.83 468.2C189.26 468.2 183.93 473.53 183.93 480.1C183.93 486.67 189.26 492 195.83 492Z" fill="white"/>
                <path class="metro-dot-hitbox" id="g22" d="M213.53 474.3C220.1 474.3 225.43 468.97 225.43 462.4C225.43 455.83 220.1 450.5 213.53 450.5C206.96 450.5 201.63 455.83 201.63 462.4C201.63 468.97 206.96 474.3 213.53 474.3Z" fill="white"/>
                <path class="metro-dot-hitbox" id="g21" d="M213.53 449.3C220.1 449.3 225.43 443.97 225.43 437.4C225.43 430.83 220.1 425.5 213.53 425.5C206.96 425.5 201.63 430.83 201.63 437.4C201.63 443.97 206.96 449.3 213.53 449.3Z" fill="white"/>
                <path class="metro-dot-hitbox" id="g20" d="M213.53 424.3C220.1 424.3 225.43 418.97 225.43 412.4C225.43 405.83 220.1 400.5 213.53 400.5C206.96 400.5 201.63 405.83 201.63 412.4C201.63 418.97 206.96 424.3 213.53 424.3Z" fill="white"/>
                <path class="metro-dot-hitbox" id="g19" d="M213.53 399.3C220.1 399.3 225.43 393.97 225.43 387.4C225.43 380.83 220.1 375.5 213.53 375.5C206.96 375.5 201.63 380.83 201.63 387.4C201.63 393.97 206.96 399.3 213.53 399.3Z" fill="white"/>
                <path class="metro-dot-hitbox" id="g18" d="M195.83 356.65C202.4 356.65 207.73 351.32 207.73 344.75C207.73 338.18 202.4 332.85 195.83 332.85C189.26 332.85 183.93 338.18 183.93 344.75C183.93 351.32 189.26 356.65 195.83 356.65Z" fill="white"/>
                <path class="metro-dot-hitbox" id="g17" d="M213.53 338.95C220.1 338.95 225.43 333.62 225.43 327.05C225.43 320.48 220.1 315.15 213.53 315.15C206.96 315.15 201.63 320.48 201.63 327.05C201.63 333.62 206.96 338.95 213.53 338.95Z" fill="white"/>
                <path class="metro-dot-hitbox" id="g16" d="M231.17 321.3C237.74 321.3 243.07 315.97 243.07 309.4C243.07 302.83 237.74 297.5 231.17 297.5C224.6 297.5 219.27 302.83 219.27 309.4C219.27 315.97 224.6 321.3 231.17 321.3Z" fill="white"/>
                <path class="metro-dot-hitbox" id="g15" d="M248.87 303.6C255.44 303.6 260.77 298.27 260.77 291.7C260.77 285.13 255.44 279.8 248.87 279.8C242.3 279.8 236.97 285.13 236.97 291.7C236.97 298.27 242.3 303.6 248.87 303.6Z" fill="white"/>
                <path class="metro-dot-hitbox" id="g14" d="M266.52 285.9C273.09 285.9 278.42 280.57 278.42 274C278.42 267.43 273.09 262.1 266.52 262.1C259.95 262.1 254.62 267.43 254.62 274C254.62 280.57 259.95 285.9 266.52 285.9Z" fill="white"/>
                <path class="metro-dot-hitbox" id="g13" d="M284.22 268.25C290.79 268.25 296.12 262.92 296.12 256.35C296.12 249.78 290.79 244.45 284.22 244.45C277.65 244.45 272.32 249.78 272.32 256.35C272.32 262.92 277.65 268.25 284.22 268.25Z" fill="white"/>
                <path class="metro-dot-hitbox" id="g12" d="M319.58 232.9C326.15 232.9 331.48 227.57 331.48 221C331.48 214.43 326.15 209.1 319.58 209.1C313.01 209.1 307.68 214.43 307.68 221C307.68 227.57 313.01 232.9 319.58 232.9Z" fill="white"/>
                <path class="metro-dot-hitbox" id="g11" d="M337.22 215.2C343.79 215.2 349.12 209.87 349.12 203.3C349.12 196.73 343.79 191.4 337.22 191.4C330.65 191.4 325.32 196.73 325.32 203.3C325.32 209.87 330.65 215.2 337.22 215.2Z" fill="white"/>
                <path class="metro-dot-hitbox" id="g10" d="M337.22 190.2C343.79 190.2 349.12 184.87 349.12 178.3C349.12 171.73 343.79 166.4 337.22 166.4C330.65 166.4 325.32 171.73 325.32 178.3C325.32 184.87 330.65 190.2 337.22 190.2Z" fill="white"/>
                <path class="metro-dot-hitbox" id="g9" d="M337.22 165.2C343.79 165.2 349.12 159.87 349.12 153.3C349.12 146.73 343.79 141.4 337.22 141.4C330.65 141.4 325.32 146.73 325.32 153.3C325.32 159.87 330.65 165.2 337.22 165.2Z" fill="white"/>
                <path class="metro-dot-hitbox" id="g8" d="M354.93 147.55C361.5 147.55 366.83 142.22 366.83 135.65C366.83 129.08 361.5 123.75 354.93 123.75C348.36 123.75 343.03 129.08 343.03 135.65C343.03 142.22 348.36 147.55 354.93 147.55Z" fill="white"/>
                <path class="metro-dot-hitbox" id="g7" d="M372.62 129.85C379.19 129.85 384.52 124.52 384.52 117.95C384.52 111.38 379.19 106.05 372.62 106.05C366.05 106.05 360.72 111.38 360.72 117.95C360.72 124.52 366.05 129.85 372.62 129.85Z" fill="white"/>
                <path class="metro-dot-hitbox" id="g6" d="M390.27 112.2C396.84 112.2 402.17 106.87 402.17 100.3C402.17 93.73 396.84 88.4 390.27 88.4C383.7 88.4 378.37 93.73 378.37 100.3C378.37 106.87 383.7 112.2 390.27 112.2Z" fill="white"/>
                <path class="metro-dot-hitbox" id="g5" d="M407.97 94.5C414.54 94.5 419.87 89.17 419.87 82.6C419.87 76.03 414.54 70.7 407.97 70.7C401.4 70.7 396.07 76.03 396.07 82.6C396.07 89.17 401.4 94.5 407.97 94.5Z" fill="white"/>
                <path class="metro-dot-hitbox" id="g4" d="M425.62 76.85C432.19 76.85 437.52 71.52 437.52 64.95C437.52 58.38 432.19 53.05 425.62 53.05C419.05 53.05 413.72 58.38 413.72 64.95C413.72 71.52 419.05 76.85 425.62 76.85Z" fill="white"/>
                <path class="metro-dot-hitbox" id="g3" d="M443.33 59.15C449.9 59.15 455.23 53.82 455.23 47.25C455.23 40.68 449.9 35.35 443.33 35.35C436.76 35.35 431.43 40.68 431.43 47.25C431.43 53.82 436.76 59.15 443.33 59.15Z" fill="white"/>
                <path class="metro-dot-hitbox" id="g2" d="M460.97 41.5C467.54 41.5 472.87 36.17 472.87 29.6C472.87 23.03 467.54 17.7 460.97 17.7C454.4 17.7 449.07 23.03 449.07 29.6C449.07 36.17 454.4 41.5 460.97 41.5Z" fill="white"/>
                <path class="metro-dot-hitbox" id="g1" d="M478.68 23.8C485.25 23.8 490.58 18.47 490.58 11.9C490.58 5.33 485.25 0 478.68 0C472.11 0 466.78 5.33 466.78 11.9C466.78 18.47 472.11 23.8 478.68 23.8Z" fill="white"/>
                </g>
                <g id="ligne-orange">
                <path class="metro-dot-hitbox" id="o27" d="M11.72 257.73C18.2 257.73 23.44 252.48 23.44 246.01C23.44 239.54 18.19 234.28 11.72 234.28C5.25 234.28 0 239.53 0 246.01C0 252.49 5.25 257.73 11.72 257.73Z" fill="white"/>
                <path class="metro-dot-hitbox" id="o26" d="M29.43 275.38C35.91 275.38 41.15 270.13 41.15 263.65C41.15 257.17 35.9 251.92 29.43 251.92C22.96 251.92 17.7 257.17 17.7 263.65C17.7 270.13 22.95 275.38 29.43 275.38Z" fill="white"/>
                <path class="metro-dot-hitbox" id="o25" d="M47.07 293.07C53.55 293.07 58.79 287.82 58.79 281.35C58.79 274.88 53.54 269.62 47.07 269.62C40.6 269.62 35.35 274.87 35.35 281.35C35.35 287.83 40.6 293.07 47.07 293.07Z" fill="white"/>
                <path class="metro-dot-hitbox" id="o24" d="M64.78 310.73C71.26 310.73 76.5 305.48 76.5 299C76.5 292.52 71.25 287.27 64.78 287.27C58.31 287.27 53.05 292.52 53.05 299C53.05 305.48 58.3 310.73 64.78 310.73Z" fill="white"/>
                <path class="metro-dot-hitbox" id="o23" d="M82.42 328.6C88.99 328.6 94.32 323.27 94.32 316.7C94.32 310.13 88.99 304.8 82.42 304.8C75.85 304.8 70.52 310.13 70.52 316.7C70.52 323.27 75.85 328.6 82.42 328.6Z" fill="white"/>
                <path class="metro-dot-hitbox" id="o22" d="M100.12 346.3C106.69 346.3 112.02 340.97 112.02 334.4C112.02 327.83 106.69 322.5 100.12 322.5C93.55 322.5 88.22 327.83 88.22 334.4C88.22 340.97 93.55 346.3 100.12 346.3Z" fill="white"/>
                <path class="metro-dot-hitbox" id="o21" d="M135.47 381.65C142.04 381.65 147.37 376.32 147.37 369.75C147.37 363.18 142.04 357.85 135.47 357.85C128.9 357.85 123.57 363.18 123.57 369.75C123.57 376.32 128.9 381.65 135.47 381.65Z" fill="white"/>
                <path class="metro-dot-hitbox" id="o20" d="M153.17 399.3C159.74 399.3 165.07 393.97 165.07 387.4C165.07 380.83 159.74 375.5 153.17 375.5C146.6 375.5 141.27 380.83 141.27 387.4C141.27 393.97 146.6 399.3 153.17 399.3Z" fill="white"/>
                <path class="metro-dot-hitbox" id="o19" d="M178.12 399.3C184.69 399.3 190.02 393.97 190.02 387.4C190.02 380.83 184.69 375.5 178.12 375.5C171.55 375.5 166.22 380.83 166.22 387.4C166.22 393.97 171.55 399.3 178.12 399.3Z" fill="white"/>
                <path class="metro-dot-hitbox" id="o18" d="M213.53 363.95C220.1 363.95 225.43 358.62 225.43 352.05C225.43 345.48 220.1 340.15 213.53 340.15C206.96 340.15 201.63 345.48 201.63 352.05C201.63 358.62 206.96 363.95 213.53 363.95Z" fill="white"/>
                <path class="metro-dot-hitbox" id="o17" d="M231.17 346.3C237.74 346.3 243.07 340.97 243.07 334.4C243.07 327.83 237.74 322.5 231.17 322.5C224.6 322.5 219.27 327.83 219.27 334.4C219.27 340.97 224.6 346.3 231.17 346.3Z" fill="white"/>
                <path class="metro-dot-hitbox" id="o16" d="M248.87 328.6C255.44 328.6 260.77 323.27 260.77 316.7C260.77 310.13 255.44 304.8 248.87 304.8C242.3 304.8 236.97 310.13 236.97 316.7C236.97 323.27 242.3 328.6 248.87 328.6Z" fill="white"/>
                <path class="metro-dot-hitbox" id="o15" d="M266.52 310.9C273.09 310.9 278.42 305.57 278.42 299C278.42 292.43 273.09 287.1 266.52 287.1C259.95 287.1 254.62 292.43 254.62 299C254.62 305.57 259.95 310.9 266.52 310.9Z" fill="white"/>
                <path class="metro-dot-hitbox" id="o14" d="M284.22 293.25C290.79 293.25 296.12 287.92 296.12 281.35C296.12 274.78 290.79 269.45 284.22 269.45C277.65 269.45 272.32 274.78 272.32 281.35C272.32 287.92 277.65 293.25 284.22 293.25Z" fill="white"/>
                <path class="metro-dot-hitbox" id="o13" d="M301.87 275.55C308.44 275.55 313.77 270.22 313.77 263.65C313.77 257.08 308.44 251.75 301.87 251.75C295.3 251.75 289.97 257.08 289.97 263.65C289.97 270.22 295.3 275.55 301.87 275.55Z" fill="white"/>
                <path class="metro-dot-hitbox" id="o12" d="M284.22 232.9C290.79 232.9 296.12 227.57 296.12 221C296.12 214.43 290.79 209.1 284.22 209.1C277.65 209.1 272.32 214.43 272.32 221C272.32 227.57 277.65 232.9 284.22 232.9Z" fill="white"/>
                <path class="metro-dot-hitbox" id="o11" d="M266.52 215.2C273.09 215.2 278.42 209.87 278.42 203.3C278.42 196.73 273.09 191.4 266.52 191.4C259.95 191.4 254.62 196.73 254.62 203.3C254.62 209.87 259.95 215.2 266.52 215.2Z" fill="white"/>
                <path class="metro-dot-hitbox" id="o10" d="M248.87 197.55C255.44 197.55 260.77 192.22 260.77 185.65C260.77 179.08 255.44 173.75 248.87 173.75C242.3 173.75 236.97 179.08 236.97 185.65C236.97 192.22 242.3 197.55 248.87 197.55Z" fill="white"/>
                <path class="metro-dot-hitbox" id="o9" d="M231.17 179.85C237.74 179.85 243.07 174.52 243.07 167.95C243.07 161.38 237.74 156.05 231.17 156.05C224.6 156.05 219.27 161.38 219.27 167.95C219.27 174.52 224.6 179.85 231.17 179.85Z" fill="white"/>
                <path class="metro-dot-hitbox" id="o8" d="M213.53 162.03C220 162.03 225.25 156.78 225.25 150.3C225.25 143.82 220 138.58 213.53 138.58C207.06 138.58 201.8 143.83 201.8 150.3C201.8 156.77 207.05 162.03 213.53 162.03Z" fill="white"/>
                <path class="metro-dot-hitbox" id="o7" d="M178.12 126.68C184.6 126.68 189.85 121.43 189.85 114.96C189.85 108.49 184.6 103.23 178.12 103.23C171.64 103.23 166.4 108.48 166.4 114.96C166.4 121.44 171.65 126.68 178.12 126.68Z" fill="white"/>
                <path class="metro-dot-hitbox" id="o6" d="M160.47 108.98C166.95 108.98 172.2 103.73 172.2 97.26C172.2 90.79 166.95 85.54 160.47 85.54C153.99 85.54 148.74 90.79 148.74 97.26C148.74 103.73 153.99 108.98 160.47 108.98Z" fill="white"/>
                <path class="metro-dot-hitbox" id="o5" d="M142.78 91.28C149.25 91.28 154.5 86.03 154.5 79.56C154.5 73.09 149.25 67.84 142.78 67.84C136.31 67.84 131.05 73.09 131.05 79.56C131.05 86.03 136.3 91.28 142.78 91.28Z" fill="white"/>
                <path class="metro-dot-hitbox" id="o4" d="M125.12 73.63C131.6 73.63 136.85 68.38 136.85 61.91C136.85 55.44 131.6 50.19 125.12 50.19C118.64 50.19 113.4 55.44 113.4 61.91C113.4 68.38 118.65 73.63 125.12 73.63Z" fill="white"/>
                <path class="metro-dot-hitbox" id="o3" d="M107.42 55.93C113.9 55.93 119.15 50.68 119.15 44.2C119.15 37.72 113.9 32.48 107.42 32.48C100.94 32.48 95.7 37.73 95.7 44.2C95.7 50.67 100.95 55.93 107.42 55.93Z" fill="white"/>
                <path class="metro-dot-hitbox" id="o2" d="M85.05 53.35C91.52 53.35 96.77 48.1 96.77 41.63C96.77 35.16 91.52 29.9 85.05 29.9C78.58 29.9 73.32 35.15 73.32 41.63C73.32 48.11 78.57 53.35 85.05 53.35Z" fill="white"/>
                <path class="metro-dot-hitbox" id="o1" d="M64.78 73.63C71.26 73.63 76.5 68.38 76.5 61.91C76.5 55.44 71.25 50.19 64.78 50.19C58.31 50.19 53.05 55.44 53.05 61.91C53.05 68.38 58.3 73.63 64.78 73.63Z" fill="white"/>
                </g>
                <g id="ligne-jaune">
                <path class="metro-dot-hitbox" id="j2" d="M407.22 249.85C413.79 249.85 419.12 244.52 419.12 237.95C419.12 231.38 413.79 226.05 407.22 226.05C400.65 226.05 395.32 231.38 395.32 237.95C395.32 244.52 400.65 249.85 407.22 249.85Z" fill="white"/>
                <path class="metro-dot-hitbox" id="j1" d="M371.87 285.2C378.44 285.2 383.77 279.87 383.77 273.3C383.77 266.73 378.44 261.4 371.87 261.4C365.3 261.4 359.97 266.73 359.97 273.3C359.97 279.87 365.3 285.2 371.87 285.2Z" fill="white"/>
                </g>
                </g>
                <g id="joins">
                <path id="join3" d="M195.83 376.65C199.64 376.65 202.73 373.56 202.73 369.75C202.73 365.94 199.64 362.85 195.83 362.85C192.02 362.85 188.93 365.94 188.93 369.75C188.93 373.56 192.02 376.65 195.83 376.65Z" fill="white" stroke="#333333" stroke-width="1.7"/>
                <path id="join2" d="M117.77 358.95C121.58 358.95 124.67 355.86 124.67 352.05C124.67 348.24 121.58 345.15 117.77 345.15C113.96 345.15 110.87 348.24 110.87 352.05C110.87 355.86 113.96 358.95 117.77 358.95Z" fill="white" stroke="#333333" stroke-width="1.7"/>
                <path id="join1" d="M195.83 139.5C199.64 139.5 202.73 136.41 202.73 132.6C202.73 128.79 199.64 125.7 195.83 125.7C192.02 125.7 188.93 128.79 188.93 132.6C188.93 136.41 192.02 139.5 195.83 139.5Z" fill="white" stroke="#333333" stroke-width="1.7"/>
                </g>
                <g id="masters">
                <path id="g-master" d="M241.69 282.2L238.97 284.92L241.69 287.64L244.41 284.92L241.69 282.2Z" fill="#CFEAE3" stroke="#333333" stroke-width="0.4" stroke-linecap="round" stroke-linejoin="round"/>
                <path id="o-master" d="M256.35 320.1L253.63 322.82L256.35 325.54L259.07 322.82L256.35 320.1Z" fill="#F1B082" stroke="#333333" stroke-width="0.4" stroke-linecap="round" stroke-linejoin="round"/>
                <path id="y-master" d="M418.95 231.9L416.23 234.62L418.95 237.34L421.67 234.62L418.95 231.9Z" fill="#EAEB86" stroke="#333333" stroke-width="0.4" stroke-linecap="round" stroke-linejoin="round"/>
                <path id="b-master" d="M181.78 272.03L179.06 274.75L181.78 277.47L184.5 274.75L181.78 272.03Z" fill="#81C3E7" stroke="#333333" stroke-width="0.4" stroke-linecap="round" stroke-linejoin="round"/>
                <path id="main" fill-rule="evenodd" clip-rule="evenodd" d="M314.58 226C311.93 223.35 307.58 223.35 304.88 226L296.28 234.6C293.63 237.25 293.63 241.6 296.28 244.3C298.93 247 303.28 246.95 305.98 244.3L314.58 235.7C317.23 233.05 317.23 228.7 314.58 226Z" fill="white" stroke="#333333" stroke-width="1.7" stroke-linecap="round" stroke-linejoin="round"/>
                </g>
                </g>
                </g>
                <defs>
                <clipPath id="clip0_9_71">
                <rect width="490.58" height="527.35" fill="white"/>
                </clipPath>
                </defs>
            </svg>